<?xml version="1.0" encoding="utf-8"?>
<!-- Generator: Adobe Illustrator 18.1.1, SVG Export Plug-In . SVG Version: 6.00 Build 0)  -->
<!DOCTYPE svg PUBLIC "-//W3C//DTD SVG 1.1//EN" "http://www.w3.org/Graphics/SVG/1.1/DTD/svg11.dtd">
<svg version="1.1" id="Layer_1" xmlns="http://www.w3.org/2000/svg" xmlns:xlink="http://www.w3.org/1999/xlink" x="0px" y="0px"
	 viewBox="0 0 640 640" enable-background="new 0 0 640 640" xml:space="preserve">
<g>
	<path fill="#FFFFFF" d="M222.9,415.7V154.2h125.9c44,0,80.7,28.6,91.4,71.3c10.7,42.6-8.2,85.2-46.9,105.9L222.9,415.7z
		 M254.8,186.1v178.2l123.9-61.3c31.2-16.7,36-48.1,30.6-69.8c-5.5-21.8-24.5-47.1-60.4-47.1H254.8z"/>
	<path fill="#FFFFFF" d="M348.8,480.1H222.9V218.6l169.9,84c39.2,21,58.1,63.5,47.4,106.2C429.5,451.4,392.7,480.1,348.8,480.1z
		 M254.8,448.2h94c35.9,0,55-25.4,60.4-47.1c5.5-21.7,0.6-53.1-31-70.1l-123.4-61V448.2z"/>
</g>
<path fill="#FFFFFF" d="M320,619.4c-165.4,0-300-134.6-300-300c0-165.4,134.6-300,300-300c165.4,0,300,134.6,300,300
	C620,484.8,485.4,619.4,320,619.4z M320,51.3c-147.8,0-268.1,120.3-268.1,268.1S172.2,587.5,320,587.5s268.1-120.3,268.1-268.1
	S467.8,51.3,320,51.3z"/>
</svg>
